<svg xmlns="http://www.w3.org/2000/svg" viewBox="0 0 512 512" fill="none">
  <defs>
    <linearGradient id="bg" x1="96" y1="64" x2="416" y2="448" gradientUnits="userSpaceOnUse">
      <stop stop-color="#4a8ec4"/>
      <stop offset="0.45" stop-color="#2a5f8f"/>
      <stop offset="1" stop-color="#142f4d"/>
    </linearGradient>
    <linearGradient id="ring" x1="80" y1="72" x2="432" y2="440" gradientUnits="userSpaceOnUse">
      <stop stop-color="#d8f0ff" stop-opacity="0.9"/>
      <stop offset="0.55" stop-color="#6eb0e0" stop-opacity="0.35"/>
      <stop offset="1" stop-color="#a8d8f8" stop-opacity="0.7"/>
    </linearGradient>
    <linearGradient id="gold" x1="256" y1="168" x2="256" y2="352" gradientUnits="userSpaceOnUse">
      <stop stop-color="#fff4d6"/>
      <stop offset="0.35" stop-color="#f0d080"/>
      <stop offset="1" stop-color="#c8943a"/>
    </linearGradient>
    <radialGradient id="shine" cx="0.32" cy="0.24" r="0.58">
      <stop stop-color="#fff" stop-opacity="0.38"/>
      <stop offset="0.55" stop-color="#fff" stop-opacity="0.1"/>
      <stop stop-color="#fff" stop-opacity="0"/>
    </radialGradient>
    <filter id="soft" x="-20%" y="-20%" width="140%" height="140%">
      <feDropShadow dx="0" dy="10" stdDeviation="18" flood-color="#061018" flood-opacity="0.35"/>
    </filter>
  </defs>
  <rect x="32" y="32" width="448" height="448" rx="108" fill="url(#bg)" stroke="url(#ring)" stroke-width="8"/>
  <rect x="32" y="32" width="448" height="448" rx="108" fill="url(#shine)"/>
  <g filter="url(#soft)" transform="translate(0 8)">
    <rect x="144" y="188" width="224" height="24" rx="12" fill="url(#gold)"/>
    <rect x="244" y="188" width="24" height="120" rx="12" fill="url(#gold)"/>
    <path d="M148 224v22" stroke="url(#gold)" stroke-width="14" stroke-linecap="round"/>
    <path d="M364 224v22" stroke="url(#gold)" stroke-width="14" stroke-linecap="round"/>
    <ellipse cx="148" cy="266" rx="56" ry="23" fill="url(#gold)"/>
    <ellipse cx="364" cy="266" rx="56" ry="23" fill="url(#gold)"/>
    <path d="M196 312h120" stroke="url(#gold)" stroke-width="22" stroke-linecap="round"/>
    <path d="M220 312v16M292 312v16" stroke="url(#gold)" stroke-width="16" stroke-linecap="round"/>
    <rect x="200" y="324" width="112" height="20" rx="10" fill="url(#gold)" opacity="0.92"/>
  </g>
</svg>
