<svg xmlns="http://www.w3.org/2000/svg" viewBox="0 0 48 48" fill="none" aria-hidden="true">
  <defs>
    <linearGradient id="bg" x1="10" y1="6" x2="40" y2="44" gradientUnits="userSpaceOnUse">
      <stop stop-color="#4a8ec4"/>
      <stop offset="0.45" stop-color="#2a5f8f"/>
      <stop offset="1" stop-color="#142f4d"/>
    </linearGradient>
    <linearGradient id="ring" x1="8" y1="8" x2="40" y2="40" gradientUnits="userSpaceOnUse">
      <stop stop-color="#d8f0ff" stop-opacity="0.85"/>
      <stop offset="0.55" stop-color="#6eb0e0" stop-opacity="0.35"/>
      <stop offset="1" stop-color="#a8d8f8" stop-opacity="0.65"/>
    </linearGradient>
    <linearGradient id="gold" x1="24" y1="15" x2="24" y2="33" gradientUnits="userSpaceOnUse">
      <stop stop-color="#fff4d6"/>
      <stop offset="0.35" stop-color="#f0d080"/>
      <stop offset="1" stop-color="#c8943a"/>
    </linearGradient>
    <radialGradient id="shine" cx="0.32" cy="0.26" r="0.62">
      <stop stop-color="#fff" stop-opacity="0.34"/>
      <stop offset="0.55" stop-color="#fff" stop-opacity="0.08"/>
      <stop stop-color="#fff" stop-opacity="0"/>
    </radialGradient>
    <filter id="glow" x="-30%" y="-30%" width="160%" height="160%">
      <feDropShadow dx="0" dy="1.2" stdDeviation="1.1" flood-color="#061018" flood-opacity="0.45"/>
    </filter>
  </defs>
  <circle cx="24" cy="24" r="22.5" fill="url(#bg)" stroke="url(#ring)" stroke-width="1.15"/>
  <circle cx="24" cy="24" r="22.5" fill="url(#shine)"/>
  <g filter="url(#glow)">
    <rect x="13.5" y="17.6" width="21" height="2.2" rx="1.1" fill="url(#gold)"/>
    <rect x="22.9" y="17.6" width="2.2" height="11.2" rx="1.1" fill="url(#gold)"/>
    <path d="M14 20.2v2.1" stroke="url(#gold)" stroke-width="1.35" stroke-linecap="round"/>
    <path d="M34 20.2v2.1" stroke="url(#gold)" stroke-width="1.35" stroke-linecap="round"/>
    <ellipse cx="14" cy="24.8" rx="5.2" ry="2.15" fill="url(#gold)"/>
    <ellipse cx="34" cy="24.8" rx="5.2" ry="2.15" fill="url(#gold)"/>
    <path d="M18.2 29.2h11.6" stroke="url(#gold)" stroke-width="2" stroke-linecap="round"/>
    <path d="M20.5 29.2v1.5M27.5 29.2v1.5" stroke="url(#gold)" stroke-width="1.5" stroke-linecap="round"/>
    <rect x="18.8" y="30.5" width="10.4" height="1.8" rx="0.9" fill="url(#gold)" opacity="0.92"/>
  </g>
</svg>
